<?xml version="1.0" encoding="utf-8"?><svg viewBox="0 0 1000 438.549" xmlns="http://www.w3.org/2000/svg" xmlns:xlink="http://www.w3.org/1999/xlink"><style>:root>svg{display:none}:root>svg:target{display:block}</style><svg viewBox="0 -4.5 20 20" id="arrow-down" xmlns="http://www.w3.org/2000/svg"><path d="M.292.366c-.39.405-.39 1.06 0 1.464l8.264 8.563c.78.81 2.047.81 2.827 0l8.325-8.625c.385-.4.39-1.048.01-1.454a.976.976 0 00-1.425-.011l-7.617 7.893a.975.975 0 01-1.414 0L1.705.366a.974.974 0 00-1.413 0" fill-rule="evenodd"/></svg><svg viewBox="0 0 100 100" id="checkmark" xmlns="http://www.w3.org/2000/svg"><path class="bst1" d="M54.3 97.2L24.8 67.7c-.4-.4-.4-1 0-1.4l8.5-8.5c.4-.4 1-.4 1.4 0L55 78.1l38.2-38.2c.4-.4 1-.4 1.4 0l8.5 8.5c.4.4.4 1 0 1.4L55.7 97.2c-.4.4-1 .4-1.4 0z"/></svg><svg viewBox="0 0 438.549 438.549" id="github" xmlns="http://www.w3.org/2000/svg"><path d="M409.132 114.573c-19.608-33.596-46.205-60.194-79.798-79.8-33.598-19.607-70.277-29.408-110.063-29.408-39.781 0-76.472 9.804-110.063 29.408-33.596 19.605-60.192 46.204-79.8 79.8C9.803 148.168 0 184.854 0 224.63c0 47.78 13.94 90.745 41.827 128.906 27.884 38.164 63.906 64.572 108.063 79.227 5.14.954 8.945.283 11.419-1.996 2.475-2.282 3.711-5.14 3.711-8.562 0-.571-.049-5.708-.144-15.417a2549.81 2549.81 0 01-.144-25.406l-6.567 1.136c-4.187.767-9.469 1.092-15.846 1-6.374-.089-12.991-.757-19.842-1.999-6.854-1.231-13.229-4.086-19.13-8.559-5.898-4.473-10.085-10.328-12.56-17.556l-2.855-6.57c-1.903-4.374-4.899-9.233-8.992-14.559-4.093-5.331-8.232-8.945-12.419-10.848l-1.999-1.431c-1.332-.951-2.568-2.098-3.711-3.429-1.142-1.331-1.997-2.663-2.568-3.997-.572-1.335-.098-2.43 1.427-3.289 1.525-.859 4.281-1.276 8.28-1.276l5.708.853c3.807.763 8.516 3.042 14.133 6.851 5.614 3.806 10.229 8.754 13.846 14.842 4.38 7.806 9.657 13.754 15.846 17.847 6.184 4.093 12.419 6.136 18.699 6.136 6.28 0 11.704-.476 16.274-1.423 4.565-.952 8.848-2.383 12.847-4.285 1.713-12.758 6.377-22.559 13.988-29.41-10.848-1.14-20.601-2.857-29.264-5.14-8.658-2.286-17.605-5.996-26.835-11.14-9.235-5.137-16.896-11.516-22.985-19.126-6.09-7.614-11.088-17.61-14.987-29.979-3.901-12.374-5.852-26.648-5.852-42.826 0-23.035 7.52-42.637 22.557-58.817-7.044-17.318-6.379-36.732 1.997-58.24 5.52-1.715 13.706-.428 24.554 3.853 10.85 4.283 18.794 7.952 23.84 10.994 5.046 3.041 9.089 5.618 12.135 7.708 17.705-4.947 35.976-7.421 54.818-7.421s37.117 2.474 54.823 7.421l10.849-6.849c7.419-4.57 16.18-8.758 26.262-12.565 10.088-3.805 17.802-4.853 23.134-3.138 8.562 21.509 9.325 40.922 2.279 58.24 15.036 16.18 22.559 35.787 22.559 58.817 0 16.178-1.958 30.497-5.853 42.966-3.9 12.471-8.941 22.457-15.125 29.979-6.191 7.521-13.901 13.85-23.131 18.986-9.232 5.14-18.182 8.85-26.84 11.136-8.662 2.286-18.415 4.004-29.263 5.146 9.894 8.562 14.842 22.077 14.842 40.539v60.237c0 3.422 1.19 6.279 3.572 8.562 2.379 2.279 6.136 2.95 11.276 1.995 44.163-14.653 80.185-41.062 108.068-79.226 27.88-38.161 41.825-81.126 41.825-128.906-.01-39.771-9.818-76.454-29.414-110.049z"/></svg><svg class="dlinkedin" viewBox="0 0 100 100" id="linkedin" xmlns="http://www.w3.org/2000/svg"><path d="M0 24C0 10.745 10.745 0 24 0s24 10.745 24 24-10.745 24-24 24S0 37.255 0 24zm16.96-4.122h-5.438V36.22h5.438V19.878zm.359-5.055C17.284 13.22 16.138 12 14.277 12c-1.86 0-3.077 1.22-3.077 2.823 0 1.569 1.18 2.824 3.006 2.824h.035c1.897 0 3.078-1.255 3.078-2.824zM36.575 26.85c0-5.02-2.683-7.356-6.262-7.356-2.888 0-4.18 1.586-4.902 2.699v-2.315h-5.44c.072 1.534 0 16.342 0 16.342h5.44v-9.127c0-.488.035-.975.179-1.325.393-.976 1.288-1.986 2.79-1.986 1.97 0 2.757 1.499 2.757 3.695v8.743h5.438v-9.37z"/></svg><svg viewBox="0 0 100 100" id="mail" xmlns="http://www.w3.org/2000/svg"><path d="M63.125 9.977a5.004 5.004 0 00-4.131-2.194H5.006c-1.676 0-3.158.842-4.067 2.117l31.16 25.982L63.125 9.977z"/><path d="M.006 14.328v36.889c0 2.75 2.25 5 5 5h53.988c2.75 0 5-2.25 5-5V14.461L32.099 41.09.006 14.328z"/></svg><svg viewBox="0 0 500 500" id="swift" xmlns="http://www.w3.org/2000/svg"><path d="M311.531 46.662c209.789 140.375 141.76 294.632 141.76 294.632s59.588 66.121 35.635 124.045c0 0-24.723-40.463-65.76-40.463-39.672 0-63.143 40.463-143.225 40.463-178.114 0-262.545-146.357-262.545-146.357 160.513 104.071 270.182 30.322 270.182 30.322-72.473-41.207-226.19-238.561-226.19-238.561C195.391 222.926 253.219 252.38 253.219 252.38 218.447 224.392 121.542 87.208 121.542 87.208c77.545 77.128 231.684 184.673 231.684 184.673 44.2-118.847-41.695-225.219-41.695-225.219zm0 0"/></svg><svg class="gtelegram" viewBox="0 0 24 24" id="telegram" xmlns="http://www.w3.org/2000/svg"><path d="M12 2C6.5 2 2 6.5 2 12s4.5 10 10 10 10-4.5 10-10S17.5 2 12 2zm4.9 6.1l-1.7 8.2c-.1.6-.5.7-.9.4l-2.6-2c-.6.6-1.2 1.1-1.3 1.3-.2.1-.3.3-.5.3-.3 0-.3-.2-.4-.4l-.9-3-2.7-.9c-.6-.2-.6-.6.1-.9l10.2-3.9c.4-.1.9.1.7.9zm-2.4.9l-5.7 3.6.9 3 .2-2 4.9-4.4c.3-.3.1-.3-.3-.2z"/></svg><svg viewBox="0 0 548.169 548.169" id="unique" xmlns="http://www.w3.org/2000/svg"><path d="M109.634 164.452c20.179 0 37.402-7.135 51.674-21.411 14.277-14.275 21.416-31.503 21.416-51.678 0-20.173-7.139-37.401-21.416-51.678-14.272-14.275-31.496-21.414-51.674-21.414-20.177 0-37.401 7.139-51.676 21.414-14.274 14.277-21.413 31.501-21.413 51.678 0 20.179 7.139 37.403 21.413 51.678 14.275 14.272 31.499 21.411 51.676 21.411zm86.935 114.067c21.413 21.406 47.248 32.114 77.516 32.114 30.269 0 56.103-10.708 77.515-32.114 21.409-21.42 32.117-47.258 32.117-77.52 0-30.264-10.708-56.101-32.117-77.515-21.412-21.414-47.246-32.121-77.515-32.121-30.268 0-56.105 10.709-77.516 32.121-21.411 21.411-32.12 47.248-32.12 77.515s10.709 56.103 32.12 77.52zm241.974-114.067c20.17 0 37.397-7.135 51.671-21.411 14.274-14.275 21.409-31.503 21.409-51.678 0-20.173-7.135-37.401-21.409-51.678-14.273-14.275-31.501-21.414-51.671-21.414-20.184 0-37.407 7.139-51.682 21.414-14.271 14.277-21.409 31.501-21.409 51.678 0 20.179 7.139 37.403 21.409 51.678 14.275 14.272 31.498 21.411 51.682 21.411zm74.22.004c-1.136 0-5.276 1.999-12.415 5.996-7.132 3.999-16.416 8.044-27.833 12.137-11.416 4.089-22.747 6.136-33.972 6.136-12.758 0-25.406-2.187-37.973-6.567.945 7.039 1.424 13.322 1.424 18.842 0 26.457-7.71 50.819-23.134 73.089 30.841.955 56.056 13.134 75.668 36.552h38.256c15.605 0 28.739-3.863 39.396-11.57 10.657-7.703 15.989-18.986 15.989-33.83.003-67.194-11.793-100.789-35.406-100.785z"/><path d="M470.096 395.284c-1.999-11.136-4.524-21.464-7.57-30.978-3.046-9.521-7.139-18.794-12.271-27.836-5.141-9.034-11.044-16.748-17.706-23.127-6.667-6.379-14.805-11.464-24.414-15.276-9.609-3.806-20.225-5.708-31.833-5.708-1.906 0-5.996 2.047-12.278 6.14a3489 3489 0 00-20.841 13.702c-7.615 5.037-17.789 9.609-30.55 13.702-12.762 4.093-25.608 6.14-38.544 6.14-12.941 0-25.791-2.047-38.544-6.14-12.756-4.093-22.936-8.665-30.55-13.702a3554.86 3554.86 0 00-20.841-13.702c-6.283-4.093-10.373-6.14-12.279-6.14-11.609 0-22.22 1.902-31.833 5.708-9.613 3.812-17.749 8.897-24.41 15.276-6.667 6.372-12.562 14.093-17.705 23.127-5.137 9.042-9.229 18.315-12.275 27.836-3.045 9.514-5.564 19.842-7.566 30.978-2 11.136-3.331 21.505-3.997 31.121a427.043 427.043 0 00-.999 29.554c0 22.836 6.945 40.874 20.839 54.098 13.899 13.223 32.363 19.842 55.389 19.842h249.535c23.028 0 41.49-6.619 55.392-19.842 13.894-13.224 20.841-31.262 20.841-54.098 0-10.088-.335-19.938-.992-29.554-.676-9.616-2.007-19.986-3.998-31.121zM169.303 274.088c-15.418-22.27-23.125-46.632-23.122-73.089 0-5.52.477-11.799 1.427-18.842-12.564 4.377-25.221 6.567-37.974 6.567-11.23 0-22.552-2.046-33.974-6.136-11.417-4.093-20.699-8.138-27.834-12.137-7.138-3.997-11.281-5.996-12.422-5.996C11.801 164.456 0 198.051 0 265.24c0 14.844 5.33 26.127 15.987 33.83 10.66 7.707 23.794 11.563 39.397 11.563h38.26c19.607-23.411 44.823-35.591 75.659-36.545z"/></svg></svg>